<?xml version="1.0" standalone="no"?>
<!DOCTYPE svg PUBLIC "-//W3C//DTD SVG 20010904//EN"
 "http://www.w3.org/TR/2001/REC-SVG-20010904/DTD/svg10.dtd">
<svg version="1.0" xmlns="http://www.w3.org/2000/svg"
 width="640.000000pt" height="640.000000pt" viewBox="0 0 640.000000 640.000000"
 preserveAspectRatio="xMidYMid meet">

<g transform="translate(0.000000,640.000000) scale(0.100000,-0.100000)"
fill="#000000" stroke="none">
<path d="M2033 5490 c-60 -14 -138 -59 -186 -107 -168 -168 -152 -446 33 -592
75 -60 148 -84 250 -84 176 0 311 96 376 268 41 109 15 270 -60 368 -93 122
-264 183 -413 147z"/>
<path d="M4245 5480 c-69 -23 -145 -77 -191 -137 -104 -136 -104 -341 1 -483
44 -61 136 -123 207 -141 276 -70 524 134 505 413 -18 260 -271 428 -522 348z"/>
<path d="M2742 5332 c-18 -18 -18 -22 -1 -107 10 -48 24 -92 31 -96 18 -12
939 -11 957 0 13 8 19 32 37 150 12 74 34 71 -518 71 -460 0 -489 -1 -506 -18z"/>
<path d="M1594 4702 c-11 -7 -85 -132 -254 -427 -57 -99 -141 -244 -187 -323
-82 -141 -94 -173 -70 -189 30 -19 143 -63 163 -63 23 0 12 -19 391 638 68
117 123 223 123 234 0 12 -25 44 -62 79 -61 56 -82 67 -104 51z"/>
<path d="M4779 4629 c-35 -28 -68 -61 -73 -72 -7 -18 16 -63 119 -242 70 -121
177 -306 237 -412 60 -105 117 -194 125 -197 22 -9 173 55 185 77 8 15 -8 48
-78 170 -48 84 -159 276 -246 427 -142 247 -177 300 -198 300 -4 0 -36 -23
-71 -51z"/>
<path d="M3911 4594 c-12 -15 -21 -30 -21 -35 0 -4 -12 -21 -26 -38 l-26 -31
-628 0 -629 0 -23 42 c-30 53 -51 67 -79 50 -11 -7 -47 -26 -80 -43 -68 -35
-74 -54 -37 -120 l21 -38 -90 -158 c-50 -87 -156 -270 -235 -408 -79 -137
-182 -316 -229 -397 l-84 -147 -91 -1 c-69 0 -95 -4 -104 -15 -17 -20 -17
-179 0 -199 8 -11 37 -16 103 -18 l91 -3 121 -210 c67 -115 206 -354 308 -530
102 -177 191 -332 197 -347 11 -23 7 -34 -34 -105 -49 -85 -58 -130 -28 -140
9 -3 46 -18 82 -34 47 -20 69 -25 82 -18 10 5 37 43 61 84 l42 75 651 0 650 0
48 -84 c67 -120 62 -118 162 -68 103 51 104 56 34 177 -27 48 -50 91 -50 95 0
5 23 49 51 97 111 192 437 755 508 880 l76 133 81 0 c103 0 109 6 110 114 1
109 -5 116 -111 116 l-81 0 -24 43 c-13 23 -78 137 -145 252 -67 116 -202 349
-300 519 l-178 309 26 51 c15 28 27 59 27 68 0 20 -131 108 -160 108 -10 0
-28 -12 -39 -26z m-237 -345 c16 -24 14 -35 -24 -99 -15 -25 -73 -124 -130
-220 -56 -96 -113 -192 -126 -212 l-24 -38 -159 0 -158 0 -158 270 c-154 266
-157 271 -141 295 l16 25 445 0 c441 0 444 0 459 -21z m279 -141 c14 -13 81
-122 150 -243 69 -121 166 -291 216 -377 50 -86 91 -166 91 -176 0 -41 -14
-42 -341 -40 l-313 3 -83 145 c-46 80 -83 154 -83 164 0 22 284 515 308 534
22 17 27 15 55 -10z m-1411 -10 c9 -7 60 -89 114 -183 53 -93 119 -208 147
-255 27 -47 50 -90 50 -95 0 -6 -37 -74 -82 -153 l-83 -142 -312 0 c-326 0
-336 1 -336 44 0 16 410 742 443 784 5 6 17 12 26 12 10 0 24 -6 33 -12z m851
-660 c17 -14 167 -266 167 -282 0 -20 -153 -277 -171 -286 -10 -6 -87 -10
-172 -10 -134 0 -156 2 -169 18 -21 22 -158 263 -158 275 0 17 134 251 157
275 21 21 30 22 176 22 107 0 158 -4 170 -12z m-621 -544 l84 -147 -149 -261
c-82 -144 -154 -267 -159 -273 -6 -7 -21 -13 -34 -13 -29 0 -33 6 -192 285
-66 116 -156 273 -201 350 -45 77 -81 149 -81 160 0 44 8 45 336 45 l312 0 84
-146z m1626 134 c22 -22 13 -49 -52 -162 -36 -61 -135 -232 -220 -381 -88
-151 -165 -274 -176 -279 -13 -6 -25 -5 -35 4 -23 19 -315 522 -315 543 0 4
17 39 39 75 21 37 57 100 80 140 l42 72 312 0 c230 0 316 -3 325 -12z m-871
-611 c189 -327 187 -325 174 -353 l-11 -24 -465 0 -465 0 -12 25 c-11 25 -1
44 269 508 l34 57 177 0 177 -1 122 -212z"/>
<path d="M778 3531 c-71 -28 -113 -57 -162 -112 -213 -237 -82 -604 235 -659
170 -30 345 65 423 230 28 59 31 74 31 165 0 91 -3 106 -31 165 -39 81 -109
152 -193 193 -57 28 -76 32 -160 34 -76 3 -106 -1 -143 -16z"/>
<path d="M5403 3536 c-109 -35 -215 -133 -253 -234 -59 -153 -25 -315 91 -431
60 -59 115 -89 200 -107 182 -38 356 50 440 221 32 65 34 77 34 170 0 93 -2
105 -32 166 -40 80 -120 160 -200 197 -47 22 -75 27 -148 29 -55 2 -106 -3
-132 -11z"/>
<path d="M1160 2584 c-82 -37 -85 -39 -88 -62 -2 -14 37 -90 101 -199 57 -98
150 -259 207 -358 237 -416 260 -449 293 -428 17 10 65 52 105 90 l33 32 -19
38 c-20 39 -125 222 -381 666 -162 279 -148 267 -251 221z"/>
<path d="M5174 2588 c-12 -13 -52 -77 -89 -143 -38 -66 -149 -259 -247 -428
-98 -169 -178 -318 -178 -331 0 -18 13 -32 49 -56 27 -17 55 -38 61 -46 7 -7
25 -14 41 -14 31 0 46 22 215 320 48 85 131 229 184 320 161 275 173 297 162
317 -9 14 -103 61 -162 79 -9 3 -25 -5 -36 -18z"/>
<path d="M2007 1481 c-106 -35 -198 -117 -245 -219 -24 -51 -27 -69 -27 -162
1 -94 3 -111 28 -162 124 -255 451 -315 646 -119 58 57 99 138 113 224 28 170
-66 343 -227 419 -87 40 -201 48 -288 19z"/>
<path d="M4276 1490 c-65 -17 -155 -71 -198 -119 -174 -196 -116 -512 114
-625 283 -138 597 72 575 385 -10 149 -111 289 -244 339 -66 25 -187 34 -247
20z"/>
<path d="M2766 1168 c-11 -16 -16 -46 -16 -105 0 -71 3 -84 19 -93 13 -6 183
-10 485 -10 408 0 466 2 480 16 21 20 20 159 0 192 l-14 22 -470 0 -469 0 -15
-22z"/>
</g>
</svg>
